<svg width="124" height="34" viewBox="0 0 124 34" fill="none" xmlns="http://www.w3.org/2000/svg">
<g clip-path="url(#clip0_10_674)">
<path d="M82.055 12.387C83.5911 10.0545 85.7404 8.87823 88.474 8.87823C90.6587 8.87823 92.124 9.89055 92.8544 11.913C93.7147 14.2994 93.5723 16.7759 92.4273 19.3425C91.1508 22.2163 89.037 23.6524 86.0857 23.6509C83.7062 23.6509 82.0727 22.4437 81.194 20.0115C80.2112 17.2846 80.4945 14.755 82.0528 12.387V12.356L82.055 12.387ZM85.7426 19.7346C86.0193 20.501 86.5107 20.8754 87.2057 20.8754C90.2647 20.8754 92.1196 15.2932 90.8867 11.8819C90.6343 11.1798 90.1983 10.8209 89.583 10.8209C88.2062 10.8209 87.0596 11.8155 86.1189 13.8246C85.1782 15.8337 85.052 17.8229 85.7426 19.7346Z" fill="#F68B1F"/>
<path d="M92.5003 12.387C94.0365 10.0545 96.1857 8.87823 98.9193 8.87823C101.104 8.87823 102.572 9.89055 103.302 11.913C104.161 14.2994 104.018 16.7759 102.875 19.3425C101.598 22.2163 99.4838 23.6524 96.531 23.6509C94.1516 23.6509 92.518 22.4437 91.6415 20.0115C90.6565 17.2846 90.9398 14.755 92.4981 12.387V12.356L92.5003 12.387ZM96.1879 19.7346C96.4646 20.501 96.956 20.8754 97.651 20.8754C100.712 20.8754 102.565 15.2932 101.334 11.8819C101.08 11.1798 100.644 10.8209 100.028 10.8209C98.6515 10.8209 97.5072 11.8155 96.5642 13.8246C95.6213 15.8337 95.4973 17.8229 96.1879 19.7346Z" fill="#F68B1F"/>
<path d="M0 8.86053C0 8.86053 5.02897 13.5123 17.7076 9.84405L17.4376 11.3946C17.4376 11.3946 0.478106 19.7523 0 8.86053Z" fill="#558F45"/>
<path d="M2.97931 0.0133158C2.97931 0.0133158 3.31797 2.00693 2.97931 7.63336C2.64065 13.2598 1.80618 20.4457 0 22.8624C0 22.8624 3.59023 25.1041 5.20826 22.0538C6.8263 19.0036 7.22693 8.9425 7.1561 5.10589C7.08527 1.26929 6.0206 -0.0287716 2.97931 0.0133158Z" fill="#558F45"/>
<path d="M21.3355 0.715487C21.3355 0.715487 17.67 -1.7721 15.6359 2.5031C13.6017 6.77829 9.51786 22.5035 18.1769 23.6199C18.1769 23.6199 16.0963 19.2384 17.6412 11.0203C19.1862 2.80214 20.4922 2.0933 21.3355 0.715487Z" fill="#558F45"/>
<path d="M34.614 8.87823C34.614 8.87823 34.811 10.6747 33.95 14.6553C33.0889 18.6359 32.3718 23.5778 36.7323 23.6509C36.7323 23.6509 36.6925 21.0703 38.1578 17.196C39.6231 13.3218 41.2699 11.2418 42.536 12.1012C43.8021 12.9607 42.9543 16.5913 42.7573 18.9105C42.4784 22.025 43.9858 23.6775 46.2701 23.6531C46.2701 23.6531 46.2125 19.2893 47.908 15.9002C49.6035 12.511 51.1485 11.4699 51.7285 12.1699C52.5231 13.1202 50.6217 17.6324 51.5713 20.9086C52.4567 23.9322 55.2855 23.6509 55.6042 23.662C55.6042 23.662 54.4422 21.6684 55.9517 16.3875C57.5521 10.7744 52.5674 3.59072 46.7017 14.8126C46.7017 14.8126 46.923 9.36335 43.9725 8.90703C41.022 8.45071 38.0272 14.3629 38.0272 14.3629C38.0272 14.3629 40.2008 9.17285 34.614 8.87823Z" fill="#558F45"/>
<path d="M66.6383 8.87823C62.3088 8.87823 57.6561 12.5908 57.6561 17.8118C57.6561 22.2775 60.3565 23.3895 63.0813 23.631C66.3306 23.919 71.8621 21.0304 68.3648 17.535C68.3648 17.535 67.3864 21.9785 64.2212 21.9785C61.056 21.9785 62.0077 10.9361 66.8928 10.4975C69.9009 10.2272 66.2288 15.9179 62.373 15.1736L62.052 16.9258C62.052 16.9258 69.9651 16.0065 69.9651 11.0468C69.9651 10.1697 69.456 8.87823 66.6383 8.87823Z" fill="#558F45"/>
<path d="M85.218 2.97268C85.218 2.97268 87.0552 0.0177002 82.936 0.0177002C78.8167 0.0177002 74.6067 2.59168 74.3854 14.5932C74.2172 23.6753 77.3647 23.6509 78.5135 23.6509C78.5135 23.6221 77.5263 19.3115 78.5932 11.1576C79.6003 3.47108 82.4601 -0.0974864 85.218 2.97268Z" fill="#F98A3C"/>
<path d="M82.0307 8.86053C82.0307 8.86053 75.1048 8.89376 74.1198 8.89376C73.1348 8.89376 72.38 9.16844 72.38 10.6326H80.4303C81.3777 10.6326 82.0307 10.1896 82.0307 8.86053Z" fill="#F68B1F"/>
<path d="M124 1.00125C124 1.00125 121.107 4.34166 120.211 13.2066C119.314 22.0715 121.138 23.6509 121.138 23.6509C121.138 23.6509 114.013 23.9655 116.461 10.8541C119.009 -2.82206 122.364 -0.108532 124 1.00125Z" fill="#F68B1F"/>
<path d="M93.4964 8.87821C101.044 8.87821 100.369 0.0177002 100.369 0.0177002C96.6771 1.14742 93.6823 1.0433 93.5074 8.18488C93.4986 8.40196 93.4964 8.87821 93.4964 8.87821ZM94.0055 8.18266C93.8572 3.78785 95.3734 2.35688 97.029 1.64582C97.7076 1.3375 98.4129 1.09207 99.1363 0.912612C94.5832 3.96063 94.0055 8.18266 94.0055 8.18266Z" fill="#558F45"/>
<path d="M89.7047 3.3227C89.1446 3.27692 88.5931 3.15699 88.0645 2.96606C87.9361 9.12412 93.0182 8.87603 93.0182 8.87603C93.0182 4.18217 90.9929 3.4844 89.7047 3.3227ZM89.2022 3.68598C89.2022 3.68598 92.487 3.68598 92.487 8.18934C92.3063 7.24233 91.918 6.34722 91.35 5.5685C90.782 4.78978 90.0484 4.14683 89.2022 3.68598Z" fill="#558F45"/>
<path d="M20.4767 12.4047C22.015 10.07 24.1643 8.89374 26.8957 8.89374C29.0804 8.89374 30.5457 9.90605 31.2761 11.9307C32.135 14.3142 31.9926 16.7899 30.8489 19.358C29.5725 22.2303 27.4579 23.6664 24.5052 23.6664C22.1257 23.6664 20.4922 22.4592 19.6156 20.027C18.6351 17.2891 18.9206 14.7594 20.4767 12.4047L20.4656 12.3715L20.4767 12.4047ZM24.1643 19.7501C24.441 20.5165 24.9324 20.8931 25.6296 20.8931C28.6886 20.8931 30.5413 15.3087 29.3106 11.8975C29.056 11.1953 28.62 10.8364 28.0046 10.8364C26.6279 10.8364 25.4835 11.8332 24.5406 13.8401C23.5977 15.847 23.4759 17.8296 24.1643 19.739V19.7501Z" fill="#558F45"/>
<path d="M106.731 12.387C108.269 10.0545 110.418 8.87823 113.15 8.87823C115.334 8.87823 116.8 9.89055 117.53 11.913C118.392 14.2994 118.249 16.7759 117.103 19.3425C115.825 22.2163 113.71 23.6524 110.759 23.6509C108.38 23.6509 106.746 22.4437 105.87 20.0115C104.885 17.2846 105.17 14.755 106.726 12.387L106.715 12.356L106.731 12.387ZM110.418 19.7346C110.695 20.501 111.186 20.8754 111.884 20.8754C114.943 20.8754 116.795 15.2932 115.565 11.8819C115.312 11.1798 114.874 10.8209 114.259 10.8209C112.884 10.8209 111.737 11.8155 110.795 13.8246C109.852 15.8337 109.73 17.8229 110.418 19.7346Z" fill="#F68B1F"/>
<path d="M31.3248 28.533V32.5203H30.7383V28.533H29.5253V28.0767H32.5511V28.533H31.3248Z" fill="#528A42"/>
<path d="M35.9797 32.5159V30.458H33.8969V32.5159H33.3103V28.0856H33.8969V30.0239H35.9797V28.0856H36.5729V32.5159H35.9797Z" fill="#528A42"/>
<path d="M40.7032 31.8092C40.6229 31.9716 40.5072 32.1139 40.3646 32.2257C40.2131 32.3426 40.0412 32.4305 39.8577 32.4848C39.4504 32.606 39.0166 32.606 38.6093 32.4848C38.4266 32.4302 38.2555 32.3424 38.1046 32.2257C37.9557 32.1105 37.836 31.9618 37.7553 31.7917C37.6745 31.6216 37.635 31.4348 37.6398 31.2466V28.0767H38.2264V31.2466C38.2243 31.3727 38.2508 31.4977 38.3039 31.6121C38.356 31.7198 38.4316 31.8144 38.5252 31.889C38.6191 31.9663 38.7275 32.0243 38.8439 32.0595C38.9706 32.1 39.1028 32.1202 39.2357 32.1193C39.3694 32.1201 39.5023 32.1 39.6297 32.0595C39.7475 32.0243 39.8573 31.9664 39.9529 31.889C40.046 31.8139 40.1215 31.7194 40.1742 31.6121C40.2283 31.498 40.2548 31.3728 40.2517 31.2466V28.0767H40.8383V31.2466C40.8391 31.4423 40.7928 31.6353 40.7032 31.8092Z" fill="#528A42"/>
<path d="M49.3955 32.5158L47.1466 29.2618L47.0381 29.089C47.0027 29.0314 46.9739 28.9805 46.9518 28.9362C46.923 28.883 46.8965 28.8299 46.8677 28.7789H46.85C46.847 28.8357 46.847 28.8927 46.85 28.9495C46.85 29.0026 46.85 29.0602 46.85 29.1245C46.85 29.1887 46.85 29.2507 46.85 29.3172V32.5158H46.332V28.0856H46.9253L49.1387 31.2798C49.1763 31.3374 49.2118 31.395 49.2472 31.4526C49.2826 31.5102 49.3158 31.5611 49.3423 31.6076C49.3689 31.6542 49.4021 31.7117 49.4287 31.7649H49.4419C49.4419 31.7073 49.4419 31.6475 49.4419 31.5877V28.0767H49.9577V32.507L49.3955 32.5158Z" fill="#528A42"/>
<path d="M55.0929 32.5159H54.4731L52.8883 28.0856H53.5169L54.6237 31.3729C54.6458 31.4438 54.6679 31.5124 54.6856 31.5833C54.7033 31.6542 54.7188 31.7184 54.7343 31.7783C54.7498 31.8381 54.772 31.9134 54.7852 31.9754H54.7985C54.814 31.9134 54.8295 31.8469 54.8472 31.7783C54.8649 31.7096 54.8782 31.6542 54.8981 31.5833C54.918 31.5124 54.938 31.4438 54.9623 31.3729L56.0558 28.0856H56.6932L55.0929 32.5159Z" fill="#528A42"/>
<path d="M57.4082 32.5159V28.0856H57.9925V32.5159H57.4082Z" fill="#528A42"/>
<path d="M59.0749 32.5159V28.0856H61.6182V28.5419H59.6482V30.0239H61.4632V30.4669H59.6482V32.0706H61.6182V32.5137L59.0749 32.5159ZM60.3477 34C60.2455 34.0021 60.1465 33.9648 60.071 33.8959C60.0346 33.8602 60.0058 33.8177 59.9861 33.7707C59.9664 33.7237 59.9562 33.6733 59.9562 33.6223C59.9562 33.5714 59.9664 33.521 59.9861 33.474C60.0058 33.427 60.0346 33.3845 60.071 33.3488C60.145 33.2765 60.2443 33.2361 60.3477 33.2361C60.451 33.2361 60.5503 33.2765 60.6243 33.3488C60.6602 33.384 60.6887 33.4261 60.7082 33.4725C60.7276 33.5189 60.7376 33.5687 60.7376 33.619C60.7376 33.6693 60.7276 33.7192 60.7082 33.7656C60.6887 33.812 60.6602 33.854 60.6243 33.8893C60.5882 33.9256 60.545 33.9542 60.4974 33.9732C60.4498 33.9923 60.3989 34.0014 60.3477 34Z" fill="#528A42"/>
<path d="M63.9844 28.533V32.5203H63.3978V28.533H62.1848V28.0767H65.2106V28.533H63.9844Z" fill="#528A42"/>
<path d="M70.8704 32.5159L70.3702 31.2333H68.4223L67.9243 32.5247H67.3045L69.0642 28.0945H69.7283L71.4769 32.5247L70.8704 32.5159ZM69.5423 29.0226C69.5198 28.9647 69.5006 28.9055 69.4848 28.8454C69.4693 28.7834 69.4538 28.728 69.4405 28.6793C69.4208 28.6259 69.4053 28.5711 69.394 28.5154H69.3808C69.3712 28.571 69.3571 28.6259 69.3387 28.6793L69.2922 28.8454C69.2756 28.9056 69.2557 28.9647 69.2325 29.0226L68.5463 30.8191H70.2307L69.5423 29.0226Z" fill="#528A42"/>
<path d="M75.2043 32.5158L72.9555 29.2618C72.9178 29.2042 72.8824 29.1466 72.847 29.089C72.8116 29.0314 72.7806 28.9805 72.7585 28.9362L72.6766 28.7789H72.6589C72.6589 28.8299 72.6589 28.8875 72.6589 28.9495C72.6589 29.0115 72.6589 29.0602 72.6589 29.1245C72.6589 29.1887 72.6589 29.2507 72.6589 29.3172V32.5158H72.1586V28.0856H72.7319L74.9454 31.2798L75.0538 31.4526L75.149 31.6076L75.2353 31.7649H75.2575C75.2575 31.7073 75.2575 31.6475 75.2575 31.5877V28.0767H75.771V32.507L75.2043 32.5158Z" fill="#528A42"/>
<path d="M78.9053 32.5159V28.0856H79.4852V32.0729H81.3268V32.5159H78.9053Z" fill="#528A42"/>
<path d="M85.2667 32.5159L84.7753 31.2333H82.8253L82.3295 32.5247H81.6986L83.4583 28.0945H84.1224L85.8732 32.5247L85.2667 32.5159ZM83.9387 29.0226C83.9162 28.9647 83.8969 28.9055 83.8811 28.8454C83.8634 28.7834 83.8501 28.728 83.8346 28.6793C83.8156 28.6259 83.8008 28.5711 83.7904 28.5154H83.7771C83.7675 28.571 83.7534 28.6259 83.735 28.6793L83.6885 28.8454C83.6708 28.9052 83.6509 28.965 83.6288 29.0226L82.9426 30.8191H84.6248L83.9387 29.0226Z" fill="#528A42"/>
<path d="M89.6007 32.5158L87.3518 29.2618C87.3142 29.2042 87.2788 29.1466 87.2433 29.089C87.2109 29.0398 87.1814 28.9888 87.1548 28.9362C87.126 28.883 87.0995 28.8299 87.0707 28.7789H87.0552C87.0552 28.8299 87.0552 28.8875 87.0552 28.9495C87.0552 29.0115 87.0552 29.0602 87.0552 29.1245C87.0552 29.1887 87.0552 29.2507 87.0552 29.3172V32.5158H86.5461V28.0856H87.1172L89.3306 31.2798L89.4391 31.4526L89.5343 31.6076L89.6206 31.7649H89.6449C89.6449 31.7073 89.6449 31.6475 89.6449 31.5877V28.0767H90.1585V32.507L89.6007 32.5158Z" fill="#528A42"/>
<path d="M93.8859 32.5159V30.458H91.8031V32.5159H91.2165V28.0856H91.8031V30.0239H93.8859V28.0856H94.4791V32.5159H93.8859Z" fill="#528A42"/>
<path d="M45.0615 32.5159L44.5613 31.2333H42.6112L42.1154 32.5247H41.4934L43.2531 28.0945H43.9172L45.6658 32.5247L45.0615 32.5159ZM43.7335 29.0226C43.7113 28.965 43.6914 28.9052 43.6737 28.8454C43.656 28.7856 43.6427 28.728 43.6294 28.6793C43.6104 28.6259 43.5956 28.5711 43.5852 28.5154H43.5719C43.5612 28.5708 43.5472 28.6256 43.5298 28.6793L43.4833 28.8454C43.4656 28.9052 43.4457 28.965 43.4236 29.0226L42.7352 30.8191H44.4196L43.7335 29.0226Z" fill="#528A42"/>
<path d="M61.0648 27.7866L60.3476 27.2926L59.646 27.7866L59.3981 27.6204L60.0931 27.0489C60.1636 26.9948 60.2499 26.9652 60.3388 26.9648C60.4327 26.9635 60.5245 26.993 60.6 27.0489L61.3238 27.6204L61.0648 27.7866Z" fill="#528A42"/>
<path d="M84.2242 27.8021L83.2126 27.1375C83.2248 27.1009 83.2444 27.0671 83.2703 27.0385C83.2963 27.0099 83.3279 26.987 83.3632 26.9714C83.4994 26.9195 83.6475 26.9072 83.7904 26.9359L84.5739 27.6758L84.2242 27.8021Z" fill="#528A42"/>
<path d="M44.6454 27.4875L43.6361 26.823C43.6478 26.7861 43.6673 26.7522 43.6933 26.7235C43.7193 26.6949 43.7511 26.6721 43.7866 26.6568C43.9228 26.6048 44.0709 26.5925 44.2138 26.6214L44.9973 27.3612L44.6454 27.4875Z" fill="#528A42"/>
<path d="M44.2979 28.0015L43.5785 27.5053L42.8791 28.0015L42.6289 27.8331L43.3262 27.2638C43.396 27.2081 43.4826 27.1777 43.5719 27.1774C43.6662 27.1758 43.7583 27.2062 43.8331 27.2638L44.5569 27.8331L44.2979 28.0015Z" fill="#528A42"/>
</g>
<defs>
<clipPath id="clip0_10_674">
<rect width="124" height="34" fill="white"/>
</clipPath>
</defs>
</svg>